<svg width="22" height="22" viewBox="0 0 22 22" fill="none" xmlns="http://www.w3.org/2000/svg">
<g clip-path="url(#clip0_1721_3248)">
<path d="M2.46385 0.90625H18.8699C19.7788 0.90625 20.5106 1.63796 20.5106 2.54686V4.69985C20.5106 5.60875 19.7788 6.34046 18.8699 6.34046H2.46385C1.55495 6.34046 0.823242 5.60875 0.823242 4.69985V2.54686C0.823242 1.63796 1.55495 0.90625 2.46385 0.90625Z" fill="#757575"/>
<path d="M2.46385 7.69273H8.12899C9.03789 7.69273 9.7696 8.42445 9.7696 9.33334V18.9508C9.7696 19.8597 8.85332 20.5914 7.94442 20.5914H2.46385C1.55495 20.5914 0.823242 19.8597 0.823242 18.9508V9.33334C0.823242 8.42445 1.55495 7.69273 2.46385 7.69273Z" fill="#757575"/>
<path d="M13.2041 7.69273H18.8692C19.7781 7.69273 20.5098 8.42445 20.5098 9.33334V11.4682C20.5098 12.3771 19.5936 13.1088 18.6847 13.1088H13.2041C12.2952 13.1088 11.5635 12.3771 11.5635 11.4682V9.33334C11.5635 8.42445 12.2952 7.69273 13.2041 7.69273ZM13.2041 14.8472H18.8692C19.7781 14.8472 20.5098 15.5789 20.5098 16.4878V18.9508C20.5098 19.8597 19.5936 20.5914 18.6847 20.5914H13.2041C12.2952 20.5914 11.5635 19.8597 11.5635 18.9508V16.4878C11.5635 15.5789 12.2952 14.8472 13.2041 14.8472Z" fill="#757575"/>
</g>
<defs>
<clipPath id="clip0_1721_3248">
<rect width="21" height="21" fill="white" transform="translate(0.166992 0.25)"/>
</clipPath>
</defs>
</svg>
