<svg width="21" height="21" viewBox="0 0 21 21" fill="none" xmlns="http://www.w3.org/2000/svg">
<path d="M19.5 10.3H16.5V1.3C16.5 0.9 16.3 0.6 16 0.4C15.7 0.2 15.3 0.2 15 0.4L12 2.1L9 0.4C8.7 0.2 8.3 0.2 8 0.4L5 2.1L2 0.4C1.7 0.2 1.3 0.2 1 0.4C0.7 0.6 0.5 0.9 0.5 1.3V17.3C0.5 19 1.8 20.3 3.5 20.3H17.5C19.2 20.3 20.5 19 20.5 17.3V11.3C20.5 10.8 20 10.3 19.5 10.3ZM7.5 16.3H5.5C4.9 16.3 4.5 15.9 4.5 15.3C4.5 14.7 4.9 14.3 5.5 14.3H7.5C8.1 14.3 8.5 14.7 8.5 15.3C8.5 15.9 8 16.3 7.5 16.3ZM7.5 12.3H5.5C4.9 12.3 4.5 11.9 4.5 11.3C4.5 10.7 4.9 10.3 5.5 10.3H7.5C8.1 10.3 8.5 10.7 8.5 11.3C8.5 11.9 8 12.3 7.5 12.3ZM6.5 8.3C5.9 8.3 5.5 7.9 5.5 7.3C5.5 6.7 5.9 6.3 6.5 6.3H10.5C11.1 6.3 11.5 6.7 11.5 7.3C11.5 7.9 11.1 8.3 10.5 8.3H6.5ZM11.5 16.3C10.9 16.3 10.5 15.9 10.5 15.3C10.5 14.7 10.9 14.3 11.5 14.3C12.1 14.3 12.5 14.7 12.5 15.3C12.5 15.9 12 16.3 11.5 16.3ZM11.5 12.3C10.9 12.3 10.5 11.9 10.5 11.3C10.5 10.7 10.9 10.3 11.5 10.3C12.1 10.3 12.5 10.7 12.5 11.3C12.5 11.9 12 12.3 11.5 12.3ZM18.5 17.3C18.5 17.9 18.1 18.3 17.5 18.3C16.9 18.3 16.5 17.9 16.5 17.3V12.3H18.5V17.3Z" fill="#757575"/>
</svg>
