<svg width="25" height="25" viewBox="0 0 25 25" fill="none" xmlns="http://www.w3.org/2000/svg">
<g clip-path="url(#clip0_1721_3263)">
<path d="M12.5 1.75002C9.87665 1.75002 7.75 3.87666 7.75 6.50002C7.75 9.12337 9.87665 11.25 12.5 11.25C15.1234 11.25 17.25 9.12337 17.25 6.50002C17.25 3.87666 15.1234 1.75002 12.5 1.75002Z" fill="#757575"/>
<path d="M9.5 12.75C6.87665 12.75 4.75 14.8767 4.75 17.5C4.75 20.1234 6.87665 22.25 9.5 22.25H15.5C18.1234 22.25 20.25 20.1234 20.25 17.5C20.25 14.8767 18.1234 12.75 15.5 12.75H9.5Z" fill="#757575"/>
</g>
<defs>
<clipPath id="clip0_1721_3263">
<rect width="24" height="24" fill="white" transform="translate(0.5 0.5)"/>
</clipPath>
</defs>
</svg>
