<svg width="32" height="32" viewBox="0 0 32 32" fill="none" xmlns="http://www.w3.org/2000/svg">
<rect width="32" height="32" rx="4" fill="#FFEFDA"/>
<path d="M15.9994 14.8589C17.3824 14.8589 18.6355 15.4191 19.5426 16.3262C20.4498 17.2334 21.01 18.4855 21.01 19.8695C21.01 21.2524 20.4488 22.5055 19.5426 23.4127C18.6355 24.3198 17.3833 24.88 15.9994 24.88C14.6155 24.88 13.3633 24.3189 12.4562 23.4127C11.5491 22.5055 10.9889 21.2534 10.9889 19.8695C10.9889 18.4865 11.55 17.2334 12.4562 16.3262C13.3633 15.4191 14.6155 14.8589 15.9994 14.8589ZM7.54896 13.5281L8.22671 12.4048C8.26557 12.3385 8.32055 12.2806 8.39069 12.238C8.61439 12.1034 8.9054 12.1754 9.04 12.3991L9.72153 13.5281L11.0069 13.8266V13.8276C11.0789 13.8447 11.1491 13.8788 11.2088 13.9309C11.4059 14.1015 11.4277 14.3992 11.2571 14.5963L10.3936 15.5926L10.5064 16.9101H10.5045C10.5102 16.9841 10.4998 17.059 10.4694 17.1319C10.368 17.3718 10.0922 17.4846 9.85139 17.3831L8.63525 16.8694L7.45607 17.368C7.37929 17.4087 7.29019 17.4277 7.1973 17.4201C6.93663 17.3992 6.74326 17.1708 6.76411 16.9101L6.87691 15.5926L6.03329 14.6181C5.97452 14.5584 5.93091 14.4816 5.91006 14.3944C5.85034 14.1394 6.00864 13.8854 6.26362 13.8266L7.54802 13.5281H7.54896ZM16.408 7.11463L17.444 8.83315L19.4052 9.28909C19.6592 9.34786 19.8175 9.60284 19.7578 9.85687C19.7379 9.94503 19.6943 10.0209 19.6346 10.0806L18.336 11.5792L18.5085 13.5887C18.5293 13.8494 18.336 14.0778 18.0753 14.0996C17.9824 14.1072 17.8933 14.0873 17.8165 14.0466L15.9975 13.2778L14.1425 14.0617C13.9017 14.1631 13.6259 14.0503 13.5245 13.8105C13.4941 13.7375 13.4828 13.6617 13.4894 13.5887H13.4875L13.6591 11.5792L12.3415 10.0578C12.1709 9.86067 12.1927 9.56303 12.3898 9.39241C12.4496 9.34027 12.5197 9.30615 12.5917 9.29004V9.28909L14.5529 8.83315L15.5928 7.10894C15.7274 6.88524 16.0184 6.8132 16.2421 6.9478C16.3122 6.99045 16.3681 7.04827 16.407 7.11463H16.408ZM23.7721 12.4048L24.4499 13.5281L25.7352 13.8266C25.9902 13.8864 26.1475 14.1404 26.0888 14.3944C26.0679 14.4826 26.0243 14.5584 25.9655 14.6181L25.1219 15.5926L25.2347 16.9101C25.2565 17.1708 25.0632 17.3992 24.8025 17.4201C24.7096 17.4277 24.6205 17.4078 24.5437 17.368L23.3645 16.8694L22.1484 17.3831C21.9086 17.4846 21.6318 17.3718 21.5304 17.1319C21.5 17.0599 21.4887 16.9841 21.4953 16.9101H21.4934L21.6062 15.5926L20.7436 14.5963C20.573 14.3992 20.5948 14.1015 20.792 13.9309C20.8517 13.8788 20.9218 13.8447 20.9939 13.8276V13.8266L22.2792 13.5281L22.9607 12.3991C23.0953 12.1754 23.3863 12.1034 23.61 12.238C23.6802 12.2806 23.7361 12.3385 23.774 12.4048H23.7721ZM14.7226 16.8229C15.0487 16.4969 15.5008 16.294 15.9994 16.294C16.498 16.294 16.9492 16.4959 17.2762 16.8229C17.6023 17.149 17.8051 17.6011 17.8051 18.0997C17.8051 18.5983 17.6032 19.0495 17.2762 19.3765C16.9492 19.7026 16.498 19.9055 15.9994 19.9055C15.5008 19.9055 15.0496 19.7036 14.7226 19.3765C14.3965 19.0495 14.1937 18.5983 14.1937 18.0997C14.1937 17.6011 14.3956 17.15 14.7226 16.8229ZM12.6325 22.1463C12.9652 21.6619 13.3728 21.2515 13.8363 20.9368C14.4743 20.5036 15.2127 20.2552 15.9985 20.2552C16.7852 20.2552 17.5227 20.5026 18.1606 20.9368C18.6241 21.2515 19.0317 21.6629 19.3644 22.1463C19.8043 21.497 20.0611 20.7131 20.0611 19.8695C20.0611 18.7471 19.6061 17.731 18.8706 16.9964C18.135 16.2608 17.1189 15.8058 15.9975 15.8058C14.8752 15.8058 13.8591 16.2608 13.1245 16.9964C12.3889 17.732 11.9339 18.7481 11.9339 19.8695C11.9339 20.7131 12.1908 21.497 12.6306 22.1463H12.6325Z" fill="#FD9720"/>
</svg>
