<svg width="25" height="25" viewBox="0 0 25 25" fill="none" xmlns="http://www.w3.org/2000/svg">
<g clip-path="url(#clip0_1721_3256)">
<path d="M10.593 21.5H6.33301C4.81301 21.5 3.58301 20.27 3.58301 18.75V5.75002C3.58301 4.40002 4.55301 3.28002 5.83301 3.05002V3.75002C5.83301 5.13002 6.95301 6.25002 8.33301 6.25002H14.333C15.713 6.25002 16.833 5.13002 16.833 3.75002V3.05002C18.113 3.28002 19.083 4.40002 19.083 5.75002V7.41002C17.963 6.83002 16.683 6.50002 15.333 6.50002C10.783 6.50002 7.08301 10.2 7.08301 14.75C7.08301 17.54 8.47301 20 10.593 21.5ZM22.083 14.75C22.083 18.472 19.055 21.5 15.333 21.5C11.611 21.5 8.58301 18.472 8.58301 14.75C8.58301 11.028 11.611 8.00002 15.333 8.00002C19.055 8.00002 22.083 11.028 22.083 14.75ZM18.863 12.22C18.57 11.927 18.095 11.927 17.802 12.22L14.332 15.69L12.862 14.22C12.569 13.927 12.094 13.927 11.801 14.22C11.508 14.513 11.508 14.988 11.801 15.281L13.447 16.927C13.69 17.171 14.01 17.292 14.331 17.292C14.652 17.292 14.972 17.171 15.215 16.927L18.861 13.281C19.154 12.988 19.154 12.513 18.861 12.22H18.863ZM8.33301 4.75002H14.333C14.885 4.75002 15.333 4.30202 15.333 3.75002V2.75002C15.333 2.19802 14.885 1.75002 14.333 1.75002H8.33301C7.78101 1.75002 7.33301 2.19802 7.33301 2.75002V3.75002C7.33301 4.30202 7.78101 4.75002 8.33301 4.75002Z" fill="#FD9720"/>
</g>
<defs>
<clipPath id="clip0_1721_3256">
<rect width="24" height="24" fill="white" transform="translate(0.333008 0.5)"/>
</clipPath>
</defs>
</svg>
