<svg width="32" height="32" viewBox="0 0 32 32" fill="none" xmlns="http://www.w3.org/2000/svg">
<rect width="32" height="32" rx="4" fill="#FFEFDA"/>
<path d="M12.7351 11.8971C13.1859 11.8971 13.5513 11.5316 13.5513 11.0809C13.5513 10.6301 13.1859 10.2647 12.7351 10.2647C12.2844 10.2647 11.9189 10.6301 11.9189 11.0809C11.9189 11.5316 12.2844 11.8971 12.7351 11.8971Z" fill="#FD9720"/>
<path d="M24.0015 11.5118L19.6485 7.15888C19.5465 7.05717 19.4084 7.00003 19.2644 7H10.5585C9.83693 7 9.14494 7.28663 8.63473 7.79684C8.12452 8.30705 7.83789 8.99904 7.83789 9.72059V22.7794C7.83789 23.501 8.12452 24.1929 8.63473 24.7032C9.14494 25.2134 9.83693 25.5 10.5585 25.5H21.4408C22.1624 25.5 22.8544 25.2134 23.3646 24.7032C23.8748 24.1929 24.1614 23.501 24.1614 22.7794V11.8971C24.1614 11.8255 24.1473 11.7546 24.1198 11.6885C24.0924 11.6224 24.0521 11.5624 24.0015 11.5118ZM11.3638 12.3966C11.1045 12.1275 10.93 11.7881 10.8622 11.4207C10.7943 11.0532 10.8361 10.6739 10.9823 10.33C11.1285 9.9861 11.3726 9.6928 11.6842 9.48663C11.9959 9.28046 12.3613 9.17053 12.735 9.17053C13.1086 9.17053 13.474 9.28046 13.7857 9.48663C14.0973 9.6928 14.3414 9.9861 14.4876 10.33C14.6338 10.6739 14.6756 11.0532 14.6077 11.4207C14.5399 11.7881 14.3654 12.1275 14.1061 12.3966C14.3566 12.5986 14.5588 12.854 14.6981 13.1441C14.8374 13.4342 14.9103 13.7517 14.9114 14.0735C14.9114 14.2178 14.8541 14.3562 14.7521 14.4583C14.65 14.5603 14.5116 14.6176 14.3673 14.6176C14.223 14.6176 14.0846 14.5603 13.9826 14.4583C13.8805 14.3562 13.8232 14.2178 13.8232 14.0735C13.8232 13.7849 13.7085 13.5081 13.5044 13.304C13.3004 13.0999 13.0236 12.9853 12.735 12.9853C12.4463 12.9853 12.1695 13.0999 11.9655 13.304C11.7614 13.5081 11.6467 13.7849 11.6467 14.0735C11.6467 14.2178 11.5894 14.3562 11.4873 14.4583C11.3853 14.5603 11.2469 14.6176 11.1026 14.6176C10.9583 14.6176 10.8199 14.5603 10.7178 14.4583C10.6158 14.3562 10.5585 14.2178 10.5585 14.0735C10.5596 13.7517 10.6325 13.4342 10.7718 13.1441C10.9111 12.854 11.1133 12.5986 11.3638 12.3966ZM20.8967 22.7794H11.1026C10.9583 22.7794 10.8199 22.7221 10.7178 22.62C10.6158 22.518 10.5585 22.3796 10.5585 22.2353C10.5585 22.091 10.6158 21.9526 10.7178 21.8505C10.8199 21.7485 10.9583 21.6912 11.1026 21.6912H20.8967C21.041 21.6912 21.1794 21.7485 21.2815 21.8505C21.3835 21.9526 21.4408 22.091 21.4408 22.2353C21.4408 22.3796 21.3835 22.518 21.2815 22.62C21.1794 22.7221 21.041 22.7794 20.8967 22.7794ZM20.8967 20.0588H11.1026C10.9583 20.0588 10.8199 20.0015 10.7178 19.8995C10.6158 19.7974 10.5585 19.659 10.5585 19.5147C10.5585 19.3704 10.6158 19.232 10.7178 19.13C10.8199 19.0279 10.9583 18.9706 11.1026 18.9706H20.8967C21.041 18.9706 21.1794 19.0279 21.2815 19.13C21.3835 19.232 21.4408 19.3704 21.4408 19.5147C21.4408 19.659 21.3835 19.7974 21.2815 19.8995C21.1794 20.0015 21.041 20.0588 20.8967 20.0588ZM20.8967 17.3382H11.1026C10.9583 17.3382 10.8199 17.2809 10.7178 17.1789C10.6158 17.0768 10.5585 16.9384 10.5585 16.7941C10.5585 16.6498 10.6158 16.5114 10.7178 16.4094C10.8199 16.3073 10.9583 16.25 11.1026 16.25H20.8967C21.041 16.25 21.1794 16.3073 21.2815 16.4094C21.3835 16.5114 21.4408 16.6498 21.4408 16.7941C21.4408 16.9384 21.3835 17.0768 21.2815 17.1789C21.1794 17.2809 21.041 17.3382 20.8967 17.3382ZM20.8967 14.6176H17.0879C16.9436 14.6176 16.8052 14.5603 16.7031 14.4583C16.6011 14.3562 16.5438 14.2178 16.5438 14.0735C16.5438 13.9292 16.6011 13.7908 16.7031 13.6888C16.8052 13.5867 16.9436 13.5294 17.0879 13.5294H20.8967C21.041 13.5294 21.1794 13.5867 21.2815 13.6888C21.3835 13.7908 21.4408 13.9292 21.4408 14.0735C21.4408 14.2178 21.3835 14.3562 21.2815 14.4583C21.1794 14.5603 21.041 14.6176 20.8967 14.6176ZM21.4408 11.3529C21.0079 11.3529 20.5927 11.181 20.2866 10.8748C19.9805 10.5687 19.8085 10.1535 19.8085 9.72059V8.85762L22.3038 11.3529H21.4408Z" fill="#FD9720"/>
</svg>
