<svg width="32" height="32" viewBox="0 0 32 32" fill="none" xmlns="http://www.w3.org/2000/svg">
<rect width="32" height="32" rx="4" fill="#FFEFDA"/>
<path d="M23.751 15H23.001V8.5C23.001 8.36739 22.9483 8.24021 22.8545 8.14645C22.7608 8.05268 22.6336 8 22.501 8H21.619C20.806 8.00067 20.0043 8.18996 19.277 8.553C18.6482 8.86486 17.9526 9.01831 17.251 9C16.9196 9.00053 16.602 9.13239 16.3677 9.3667C16.1334 9.60101 16.0015 9.91864 16.001 10.25V12.75C16.0015 13.0814 16.1334 13.399 16.3677 13.6333C16.602 13.8676 16.9196 13.9995 17.251 14C18.1078 14.0146 18.9559 13.825 19.725 13.447C20.3132 13.1533 20.9615 13.0003 21.619 13H22.001V15H21.251C20.9196 15.0005 20.602 15.1324 20.3677 15.3667C20.1334 15.601 20.0015 15.9186 20.001 16.25V18H17.251C16.9196 18.0005 16.602 18.1324 16.3677 18.3667C16.1334 18.601 16.0015 18.9186 16.001 19.25V21H13.251C12.9196 21.0005 12.602 21.1324 12.3677 21.3667C12.1334 21.601 12.0015 21.9186 12.001 22.25V24H8.50098C8.36837 24 8.24119 24.0527 8.14742 24.1464C8.05366 24.2402 8.00098 24.3674 8.00098 24.5C8.00098 24.6326 8.05366 24.7598 8.14742 24.8536C8.24119 24.9473 8.36837 25 8.50098 25H24.501C24.6336 25 24.7608 24.9473 24.8545 24.8536C24.9483 24.7598 25.001 24.6326 25.001 24.5V16.25C25.0004 15.9186 24.8686 15.601 24.6343 15.3667C24.4 15.1324 24.0823 15.0005 23.751 15ZM22.001 12H21.619C20.806 12.0007 20.0043 12.19 19.277 12.553C18.6482 12.8649 17.9526 13.0183 17.251 13C17.1847 13 17.1211 12.9737 17.0742 12.9268C17.0273 12.8799 17.001 12.8163 17.001 12.75V10.25C17.001 10.1837 17.0273 10.1201 17.0742 10.0732C17.1211 10.0263 17.1847 10 17.251 10C18.1078 10.0146 18.9559 9.82504 19.725 9.447C20.3132 9.15331 20.9615 9.00029 21.619 9H22.001V12Z" fill="#FD9720"/>
</svg>
