<svg width="20" height="20" viewBox="0 0 20 20" fill="none" xmlns="http://www.w3.org/2000/svg">
<path d="M2.13398 15.8594C1.90898 15.3677 1.76732 14.8094 1.70898 14.1927C1.76732 14.801 1.92565 15.351 2.15065 15.8427L2.13398 15.8594Z" fill="#FD9720"/>
<path fill-rule="evenodd" clip-rule="evenodd" d="M7.50091 8.65092C6.40555 8.65092 5.51758 7.76295 5.51758 6.66758C5.51758 5.57222 6.40555 4.68425 7.50091 4.68425C8.59628 4.68425 9.48425 5.57222 9.48425 6.66758C9.48425 7.76295 8.59628 8.65092 7.50091 8.65092Z" fill="#FD9720"/>
<path fill-rule="evenodd" clip-rule="evenodd" d="M6.50768 1.6665C3.47435 1.6665 1.66602 3.47484 1.66602 6.50817V13.4915C1.66602 14.3998 1.82435 15.1915 2.13268 15.8582C2.84935 17.4415 4.38268 18.3332 6.50768 18.3332H13.491C16.5243 18.3332 18.3327 16.5248 18.3327 13.4915V11.5832V6.50817C18.3327 3.47484 16.5243 1.6665 13.491 1.6665H6.50768ZM14.6243 10.4165L11.1577 13.3915C10.5077 13.9498 9.45768 13.9498 8.80768 13.3915L8.52435 13.1582C7.93268 12.6415 6.99102 12.5915 6.32435 13.0415L3.20768 15.1332C3.02435 14.6665 2.91602 14.1248 2.91602 13.4915V6.50817C2.91602 4.15817 4.15768 2.9165 6.50768 2.9165H13.491C15.841 2.9165 17.0827 4.15817 17.0827 6.50817V10.5082L16.9743 10.4165C16.3243 9.85817 15.2743 9.85817 14.6243 10.4165Z" fill="#FD9720"/>
</svg>
