<svg width="28" height="28" viewBox="0 0 28 28" fill="none" xmlns="http://www.w3.org/2000/svg">
<path d="M22.6247 24.5275C21.6656 25.0404 20.7222 25.1998 18.7469 25.1998H15.4078C15.3999 25.2 15.392 25.2 15.384 25.2C14.7585 25.2 14.2515 24.693 14.2515 24.0675C14.2515 23.442 14.7585 22.9349 15.384 22.9349L18.7469 22.9347C20.6177 22.9347 21.1009 22.7737 21.5564 22.53C21.9791 22.304 22.304 21.9791 22.53 21.5565C22.7736 21.1009 22.9346 20.6178 22.9346 18.7469L22.9346 9.2529C22.9346 7.38206 22.7736 6.89891 22.53 6.44339C22.304 6.02075 21.9791 5.69584 21.5564 5.46981C21.1009 5.22619 20.6177 5.06519 18.7469 5.06519L15.4079 5.06519C15.4 5.06536 15.392 5.06544 15.384 5.06544C14.7585 5.06544 14.2515 4.55837 14.2515 3.93287C14.2515 3.30736 14.7585 2.80029 15.384 2.80029L18.7469 2.80005C20.7222 2.80005 21.6656 2.95944 22.6247 3.47237C23.4421 3.90951 24.0903 4.55777 24.5275 5.37515C25.0404 6.33425 25.1998 7.27763 25.1998 9.2529V18.7469C25.1998 20.7222 25.0404 21.6656 24.5275 22.6247C24.0903 23.4421 23.4421 24.0903 22.6247 24.5275Z" fill="#252525"/>
<path d="M10.8079 18.2329L13.9081 15.1328H3.93239C3.30688 15.1328 2.7998 14.6257 2.7998 14.0002C2.7998 13.3747 3.30688 12.8676 3.93239 12.8676H13.9083L10.8079 9.76726C10.3656 9.32496 10.3656 8.60786 10.8079 8.16556C11.2502 7.72326 11.9673 7.72326 12.4097 8.16556L17.4434 13.1992C17.8857 13.6415 17.8857 14.3586 17.4434 14.8009L12.4097 19.8346C11.9673 20.2769 11.2502 20.2769 10.8079 19.8346C10.3656 19.3923 10.3656 18.6752 10.8079 18.2329Z" fill="#252525"/>
</svg>
