<svg width="24" height="24" viewBox="0 0 24 24" fill="none" xmlns="http://www.w3.org/2000/svg">
<path d="M18.3238 4.47632H16.2861C16.0872 4.47632 15.8964 4.55534 15.7558 4.69599C15.6151 4.83664 15.5361 5.02741 15.5361 5.22632C15.5361 5.42523 15.6151 5.616 15.7558 5.75665C15.8964 5.8973 16.0872 5.97632 16.2861 5.97632H18.3238C19.3577 5.97632 20.2307 6.87032 20.2307 7.92819V16.0758C20.2305 16.5816 20.0296 17.0666 19.6721 17.4244C19.3145 17.7821 18.8296 17.9833 18.3238 17.9838H16.2861C16.0872 17.9838 15.8964 18.0628 15.7558 18.2035C15.6151 18.3441 15.5361 18.5349 15.5361 18.7338C15.5361 18.9327 15.6151 19.1235 15.7558 19.2641C15.8964 19.4048 16.0872 19.4838 16.2861 19.4838H18.3238C20.2026 19.4838 21.7307 17.9549 21.7307 16.0758V7.92819C21.7307 6.02432 20.2026 4.47632 18.3238 4.47632Z" fill="black"/>
<path d="M2.30614 11.7158C2.27004 11.8033 2.25083 11.8968 2.24951 11.9914V12.012C2.25101 12.1099 2.27089 12.2029 2.30576 12.2877C2.34176 12.3743 2.39426 12.4557 2.46401 12.5269L2.46551 12.5288L2.46701 12.5307L2.46776 12.5314L2.46851 12.5322L7.16351 17.2272C7.30976 17.3738 7.50176 17.4469 7.69376 17.4469C7.88576 17.4469 8.07776 17.3738 8.22401 17.2272C8.36462 17.0865 8.4436 16.8958 8.4436 16.6969C8.4436 16.498 8.36462 16.3073 8.22401 16.1667L4.80964 12.7523H15.5763C15.7752 12.7523 15.966 12.6733 16.1066 12.5326C16.2473 12.392 16.3263 12.2012 16.3263 12.0023C16.3263 11.8034 16.2473 11.6126 16.1066 11.472C15.966 11.3313 15.7752 11.2523 15.5763 11.2523H4.81039L8.22476 7.83829C8.2964 7.76911 8.35353 7.68635 8.39284 7.59485C8.43215 7.50334 8.45284 7.40493 8.4537 7.30535C8.45457 7.20576 8.43559 7.107 8.39788 7.01483C8.36017 6.92266 8.30448 6.83892 8.23406 6.7685C8.16364 6.69808 8.0799 6.64239 7.98773 6.60468C7.89556 6.56697 7.7968 6.54799 7.69721 6.54886C7.59763 6.54972 7.49921 6.57041 7.40771 6.60972C7.31621 6.64903 7.23345 6.70616 7.16426 6.77779L2.46926 11.4717C2.39934 11.5415 2.3439 11.6245 2.30614 11.7158Z" fill="black"/>
</svg>
