<svg width="44" height="44" viewBox="0 0 44 44" fill="none" xmlns="http://www.w3.org/2000/svg">
<g opacity="0.4" clip-path="url(#clip0_802_4008)">
<path fill-rule="evenodd" clip-rule="evenodd" d="M25.08 11.22C25.96 11.66 26.62 11.88 27.5 12.32C28.16 12.76 29.26 12.76 29.92 12.1L31.02 10.78C31.46 10.56 31.46 10.12 31.46 9.68C31.24 8.58 31.68 7.26 32.34 6.38C33.88 5.06 36.08 5.06 37.62 6.38C38.94 7.92 38.94 10.12 37.62 11.66C36.74 12.32 35.42 12.76 34.32 12.54C33.88 12.54 33.44 12.54 33.22 12.98L31.9 14.08C31.24 14.74 31.24 15.84 31.68 16.5C32.12 17.38 32.34 18.04 32.78 18.92C33 20.02 33.66 20.46 34.76 20.46H36.3C36.74 20.46 37.18 20.24 37.4 20.02C38.06 18.92 39.16 18.48 40.48 18.48C42.46 18.48 44 20.02 44 22C44 23.98 42.46 25.52 40.48 25.52C39.16 25.52 38.06 25.08 37.4 23.98C37.18 23.76 36.74 23.54 36.3 23.54H34.76C33.66 23.54 33 23.98 32.78 25.08C32.34 25.96 32.12 26.62 31.68 27.5C31.24 28.16 31.24 29.26 31.9 29.92L33.22 31.02C33.44 31.46 33.88 31.46 34.32 31.46C35.42 31.24 36.74 31.68 37.62 32.34C38.94 33.88 38.94 36.08 37.62 37.62C36.08 38.94 33.88 38.94 32.34 37.62C31.68 36.74 31.24 35.42 31.46 34.32C31.46 33.88 31.46 33.44 31.02 33.22L29.92 31.9C29.26 31.24 28.16 31.24 27.5 31.68C26.62 32.12 25.96 32.34 25.08 32.78C23.98 33 23.54 33.66 23.54 34.76V36.3C23.54 36.74 23.76 37.18 23.98 37.4C25.08 38.06 25.52 39.16 25.52 40.48C25.52 42.46 23.98 44 22 44C20.02 44 18.48 42.46 18.48 40.48C18.48 39.16 18.92 38.06 20.02 37.4C20.24 37.18 20.46 36.74 20.46 36.3V34.76C20.46 33.66 20.02 33 18.92 32.78C18.04 32.34 17.38 32.12 16.5 31.68C15.84 31.24 14.74 31.24 14.08 31.9L12.98 33.22C12.54 33.44 12.54 33.88 12.54 34.32C12.76 35.42 12.32 36.74 11.66 37.62C10.12 38.94 7.92 38.94 6.38 37.62C5.06 36.08 5.06 33.88 6.38 32.34C7.26 31.68 8.58 31.24 9.68 31.46C10.12 31.46 10.56 31.46 10.78 31.02L12.1 29.92C12.76 29.26 12.76 28.16 12.32 27.5C11.88 26.62 11.66 25.96 11.22 25.08C11 23.98 10.34 23.54 9.24 23.54H7.7C7.26 23.54 6.82 23.76 6.6 23.98C5.94 25.08 4.84 25.52 3.52 25.52C1.54 25.52 0 23.98 0 22C0 20.02 1.54 18.48 3.52 18.48C4.84 18.48 5.94 18.92 6.6 20.02C6.82 20.24 7.26 20.46 7.7 20.46H9.24C10.34 20.46 11 20.02 11.22 18.92C11.66 18.04 11.88 17.38 12.32 16.5C12.76 15.84 12.76 14.74 12.1 14.08L10.78 12.98C10.56 12.54 10.12 12.54 9.68 12.54C8.58 12.76 7.26 12.32 6.38 11.66C5.06 10.12 5.06 7.92 6.38 6.38C7.92 5.06 10.12 5.06 11.66 6.38C12.32 7.26 12.76 8.58 12.54 9.68C12.54 10.12 12.54 10.56 12.98 10.78L14.08 12.1C14.74 12.76 15.84 12.76 16.5 12.32C17.38 11.88 18.04 11.66 18.92 11.22C20.02 11 20.46 10.34 20.46 9.24V7.7C20.46 7.26 20.24 6.82 20.02 6.6C18.92 5.94 18.48 4.84 18.48 3.52C18.48 1.54 20.02 0 22 0C23.98 0 25.52 1.54 25.52 3.52C25.52 4.84 25.08 5.94 23.98 6.6C23.76 6.82 23.54 7.26 23.54 7.7V9.24C23.54 10.34 23.98 11 25.08 11.22ZM17.16 22.44C18.48 22.44 19.36 23.54 19.36 24.86C19.36 26.18 18.48 27.06 17.16 27.06C15.84 27.06 14.74 26.18 14.74 24.86C14.74 23.54 15.84 22.44 17.16 22.44ZM25.96 14.52C26.4 14.52 26.84 14.96 26.84 15.62C26.84 16.06 26.4 16.5 25.96 16.5C25.3 16.5 24.86 16.06 24.86 15.62C24.86 14.96 25.3 14.52 25.96 14.52ZM24.42 27.5C25.08 27.5 25.74 28.16 25.74 28.82C25.74 29.7 25.08 30.14 24.42 30.14C23.54 30.14 23.1 29.7 23.1 28.82C23.1 28.16 23.54 27.5 24.42 27.5ZM28.16 19.8C29.04 19.8 29.92 20.46 29.92 21.56C29.92 22.44 29.04 23.32 28.16 23.32C27.06 23.32 26.4 22.44 26.4 21.56C26.4 20.46 27.06 19.8 28.16 19.8ZM18.26 14.74C18.92 14.74 19.58 15.4 19.58 16.06C19.58 16.72 18.92 17.38 18.26 17.38C17.6 17.38 16.94 16.72 16.94 16.06C16.94 15.4 17.6 14.74 18.26 14.74Z" fill="#252525"/>
</g>
<defs>
<clipPath id="clip0_802_4008">
<rect width="44" height="44" fill="white"/>
</clipPath>
</defs>
</svg>
