<svg width="44" height="44" viewBox="0 0 44 44" fill="none" xmlns="http://www.w3.org/2000/svg">
<g opacity="0.4">
<path d="M5.6628 28.231C5.92325 28.2973 6.17909 28.3806 6.42868 28.4802C7.41894 28.8679 11.8091 30.4091 16.1912 29.1999C16.3785 29.147 16.5404 29.0284 16.6475 28.8659C16.7545 28.7033 16.7995 28.5077 16.7741 28.3147C16.7372 28.0107 16.721 27.7045 16.7255 27.3983C16.7461 25.9817 16.8092 22.6012 16.9149 21.2569C16.9218 21.1734 16.9112 21.0893 16.884 21.0101C16.8567 20.9309 16.8134 20.8581 16.7567 20.7965C16.6999 20.7348 16.6311 20.6856 16.5544 20.6518C16.4777 20.6181 16.3948 20.6006 16.3111 20.6005H10.941C10.2413 19.4443 9.90883 18.103 9.98761 16.7539C10.065 15.3202 10.2878 12.6666 10.9233 9.95367C11.0582 9.37789 10.2616 9.07874 9.98357 9.60064C8.76609 11.8834 7.31848 15.5131 6.68598 20.6006H3.89816C3.71262 20.6006 3.5289 20.6372 3.35748 20.7082C3.18607 20.7792 3.03032 20.8833 2.89912 21.0145C2.76793 21.1457 2.66387 21.3014 2.59287 21.4729C2.52188 21.6443 2.48534 21.828 2.48535 22.0135V26.914C2.48529 27.0583 2.51413 27.2011 2.57018 27.3341C2.62623 27.4671 2.70834 27.5874 2.81167 27.6881C2.915 27.7889 3.03746 27.8678 3.17182 27.9204C3.30617 27.973 3.44971 27.9982 3.59395 27.9944C4.29107 27.9798 4.98698 28.0594 5.6628 28.231Z" fill="#252525"/>
<path d="M41.5147 30.1389C41.5148 29.9902 41.4842 29.8431 41.4249 29.7067C41.3655 29.5704 41.2787 29.4477 41.1698 29.3464C41.061 29.2451 40.9324 29.1673 40.7921 29.1179C40.6518 29.0685 40.5029 29.0486 40.3546 29.0593C39.4424 29.1259 38.4762 29.3515 37.6138 29.8742C36.3419 30.645 34.7614 30.9523 32.9175 30.7875C31.5943 30.6606 30.3033 30.305 29.1018 29.7365C28.8972 29.6415 28.6937 29.5536 28.4912 29.4728C28.3914 29.4326 28.2845 29.4127 28.1768 29.4143C28.0692 29.4158 27.9629 29.4388 27.8643 29.4819C27.7656 29.525 27.6765 29.5873 27.6022 29.6652C27.5279 29.7431 27.4698 29.835 27.4314 29.9356C27.1544 30.6839 26.7102 31.3591 26.1326 31.9097C25.4886 32.5232 24.6972 32.9603 23.8349 33.1787C23.2821 33.2958 22.7198 33.3631 22.155 33.3798C19.4874 33.5076 18.1772 31.8587 17.6559 30.9458C17.5669 30.7883 17.4275 30.6653 17.2602 30.5964C17.0929 30.5276 16.9073 30.517 16.7332 30.5663C15.4155 30.9379 14.0521 31.1226 12.683 31.1151C9.40084 31.1151 6.67722 30.1519 5.89441 29.8454C5.70404 29.7688 5.50882 29.7048 5.31004 29.6539C4.72195 29.5035 4.11514 29.4394 3.50862 29.4635C3.23183 29.4777 2.97113 29.5979 2.78061 29.7992C2.59008 30.0005 2.48435 30.2674 2.48536 30.5445V41.0686H41.5147V30.1389Z" fill="#252525"/>
<path d="M27.8172 27.126C27.8246 27.2886 27.8804 27.4452 27.9774 27.576C28.0743 27.7067 28.2081 27.8055 28.3616 27.8597C28.8233 28.0186 29.2765 28.2012 29.7194 28.407C30.7674 28.904 31.8937 29.2154 33.0482 29.3273C34.5749 29.4637 35.8553 29.2259 36.8543 28.6204C38.0242 27.9115 39.3098 27.6374 40.4832 27.5792C40.7609 27.5661 41.0229 27.4467 41.2149 27.2456C41.4069 27.0446 41.5142 26.7773 41.5145 26.4993V22.0138C41.5145 21.8283 41.4779 21.6446 41.407 21.4732C41.336 21.3017 41.2319 21.146 41.1007 21.0148C40.9695 20.8836 40.8138 20.7795 40.6423 20.7085C40.4709 20.6375 40.2872 20.6009 40.1017 20.6009H37.0251C36.3254 19.4446 35.9932 18.1031 36.0722 16.7539C36.1496 15.3202 36.3724 12.6666 37.0079 9.95355C37.1428 9.37777 36.3462 9.0787 36.0682 9.6006C34.8507 11.8834 33.4031 15.5131 32.7706 20.6006H27.3835C27.2803 20.6008 27.1789 20.6272 27.0888 20.6776C26.9987 20.7279 26.923 20.8004 26.8688 20.8882C26.8146 20.976 26.7837 21.0761 26.779 21.1792C26.7743 21.2823 26.796 21.3848 26.8421 21.4772C27.5726 22.9467 27.7267 26.1484 27.7542 26.4344C27.7846 26.6733 27.8055 26.9038 27.8172 27.126ZM25.311 2.60976C25.3328 2.52892 25.3354 2.44413 25.3186 2.36212C25.3018 2.28011 25.2662 2.20314 25.2144 2.13732C25.1627 2.07151 25.0964 2.01866 25.0206 1.98298C24.9449 1.94731 24.8619 1.92978 24.7782 1.9318C24.6897 1.93182 24.6027 1.95435 24.5253 1.99729C24.4479 2.04023 24.3827 2.10215 24.3358 2.17723C22.3882 5.11028 19.3406 10.7876 18.4418 20.6009C18.3038 22.1084 18.2159 25.7124 18.191 27.4201C18.1861 27.7478 18.2111 28.0754 18.2657 28.3986C18.3473 28.8878 18.5038 29.3614 18.7298 29.8028C18.7425 29.8275 18.7535 29.853 18.7666 29.8775C19.3005 30.8688 20.3027 31.9137 22.1543 31.9137C22.6117 31.91 23.0672 31.8546 23.5121 31.7486C23.5121 31.7486 25.6881 31.3024 26.2379 28.8057C26.3406 28.3208 26.381 27.8247 26.3582 27.3296C26.3496 27.0964 26.3303 26.8525 26.2967 26.5947C26.2967 26.5947 26.1587 22.8482 24.8453 20.9808C24.7576 20.856 24.6735 20.7291 24.5918 20.6009C23.5167 18.9369 22.978 16.9831 23.0484 15.0032C23.1551 12.3478 24.0068 7.62387 25.311 2.60976Z" fill="#252525"/>
</g>
</svg>
