<svg width="44" height="44" viewBox="0 0 44 44" fill="none" xmlns="http://www.w3.org/2000/svg">
<g opacity="0.4">
<path d="M31.2139 9.47069C31.1736 9.4743 31.1367 9.48293 31.0969 9.48741C29.0538 7.0345 28.3273 4.15241 28.309 4.07788C27.9981 2.76263 27.0136 2.46563 25.696 2.77205C24.3761 3.07952 23.2236 3.87926 23.5309 5.19917C23.5802 5.41002 24.4756 9.11289 27.1965 12.4656C26.595 13.7093 26.1814 15.3276 25.9122 17.3283C25.2495 22.251 19.1906 26.3219 13.9837 29.2568C12.9038 29.8655 12.1617 30.4859 11.6575 31.0879C10.7304 31.0716 9.72599 31.1213 8.68777 31.2809C4.15586 31.978 2.86736 37.3942 2.82037 40.4846C2.80013 41.8367 3.33755 42.548 5.23597 42.548C7.13439 42.548 7.69918 41.9028 7.72769 40.5663C7.75972 39.064 8.35742 36.2971 9.4341 36.1315C10.1898 36.0154 11.2263 35.992 11.6076 35.9935C16.7025 46.0002 38.1726 43.1011 40.6809 29.3514C43.2369 15.3402 34.338 9.18672 31.2139 9.47069ZM35.3375 32.2375C31.2376 37.0383 26.5417 38.1482 23.3243 38.2338C23.1777 38.2377 23.0327 38.2397 22.8897 38.2397C19.6363 38.2397 17.3235 37.2717 17.2225 37.2287C16.5516 36.9432 16.2394 36.168 16.5249 35.4971C16.8099 34.8275 17.5831 34.515 18.2533 34.7982C18.3027 34.8187 20.4484 35.6917 23.3607 35.5915C27.2171 35.4585 30.5713 33.7532 33.3301 30.523C33.8036 29.9686 34.6367 29.903 35.191 30.3765C35.7454 30.8499 35.811 31.6832 35.3375 32.2375ZM36.7337 28.9787C35.9915 28.9787 35.3899 28.3771 35.3899 27.6349C35.3899 26.8927 35.9915 26.291 36.7337 26.291C37.4759 26.291 38.0776 26.8927 38.0776 27.6349C38.0776 28.3771 37.4758 28.9787 36.7337 28.9787Z" fill="#252525"/>
</g>
</svg>
