<svg width="44" height="44" viewBox="0 0 44 44" fill="none" xmlns="http://www.w3.org/2000/svg">
<g opacity="0.4">
<path d="M6.4707 9.05877V14.2352C6.4707 15.0117 6.98835 15.5294 7.76482 15.5294H13.7178L16.8236 18.6352C16.8236 22.3882 19.1531 22 22.0001 22C24.8472 22 27.1766 22.3882 27.1766 18.6352L30.2825 15.5294H36.2354C37.0119 15.5294 37.5295 15.0117 37.5295 14.2352V9.05877C37.5295 8.67054 37.4001 8.41171 37.1413 8.15289L30.6707 1.6823C30.1531 1.16466 29.3766 1.16466 28.8589 1.6823C28.3413 2.19995 28.3413 2.97642 28.8589 3.49407L34.9413 9.57642V12.9411H29.7648C29.3766 12.9411 29.1178 13.0705 28.8589 13.3294L26.6589 15.5294C26.4001 14.8823 26.1413 14.3647 25.8825 13.847C26.1413 11.5176 24.9766 9.05877 23.2942 9.05877V11.9058C22.3883 11.647 21.7413 11.5176 20.8354 11.9058V9.05877C19.0236 9.05877 17.9883 11.647 18.2472 13.7176C17.8589 14.2352 17.6001 14.8823 17.3413 15.5294L15.1413 13.3294C14.8825 13.0705 14.6236 12.9411 14.2354 12.9411H9.05894V9.57642L15.1413 3.49407C15.6589 2.97642 15.6589 2.19995 15.1413 1.6823C14.6236 1.16466 13.8472 1.16466 13.3295 1.6823L6.85894 8.15289C6.60012 8.41171 6.4707 8.67054 6.4707 9.05877Z" fill="#252525"/>
<path d="M35.7174 21.7412L40.8939 17.8588C41.4116 17.4706 41.541 16.5647 41.1527 16.0471C40.7645 15.5294 39.988 15.4 39.341 15.7882L34.4233 19.4118H29.7645C29.3763 24.5882 24.8469 24.5882 23.4233 24.5882C23.2939 24.5882 20.5763 24.5882 20.8351 24.5882C17.2116 24.5882 14.7527 23.2941 14.4939 19.4118H9.44685L4.5292 15.7882C4.01155 15.4 3.10567 15.5294 2.71744 16.0471C2.3292 16.5647 2.45861 17.4706 2.97626 17.8588L8.15273 21.7412C8.54097 21.8706 8.79979 22 9.05861 22H13.4586C13.3292 22.5176 13.3292 22.5176 12.941 24.5882H9.05861C8.79979 24.5882 8.54097 24.7177 8.28214 24.8471L3.10567 28.7294C2.58802 29.1177 2.45861 30.0235 2.84685 30.5412C3.23508 31.0588 4.01155 31.1882 4.65861 30.8L9.44685 27.1765H12.4233L12.0351 29.7647H10.3527C9.9645 29.7647 9.70567 29.8941 9.44685 30.1529L4.14097 35.3294C4.01155 35.5882 3.88214 35.8471 3.88214 36.2353V40.1177C3.88214 40.8941 4.39979 41.4118 5.17626 41.4118C5.82332 41.4118 6.47038 40.8941 6.47038 40.1177V36.7529L10.9998 32.3529H11.6468C11.388 37.9177 16.0468 42.7059 21.9998 42.7059C27.9527 42.7059 32.6116 37.9177 32.3527 32.3529H32.9998L37.5292 36.7529V40.1177C37.5292 40.8941 38.0469 41.4118 38.8233 41.4118C39.5998 41.4118 40.1174 40.8941 40.1174 40.1177V36.2353C40.1174 35.8471 39.988 35.5882 39.7292 35.3294L34.4233 30.1529C34.1645 29.8941 33.9057 29.7647 33.5174 29.7647H31.8351L31.4468 27.1765H34.4233L39.341 30.8C39.8586 31.1882 40.7645 31.0588 41.1527 30.5412C41.541 29.8941 41.4116 29.1177 40.8939 28.7294L35.7174 24.8471C35.4586 24.5882 35.1998 24.5882 34.941 24.5882H31.0586C30.7998 23.0353 30.7998 23.0353 30.541 22H34.941C35.1998 22 35.4586 21.8706 35.7174 21.7412Z" fill="#252525"/>
</g>
</svg>
