<svg width="44" height="44" viewBox="0 0 44 44" fill="none" xmlns="http://www.w3.org/2000/svg">
<g opacity="0.4">
<path d="M37 9.5C37 6 34.3333 2 30.3333 2C28.8333 2 27.3333 2.16667 26 2.5C25.3333 2.66667 24.5 2.83333 23.6667 2.83333C23.1667 2.83333 22.8333 3.16667 22.8333 3.66667V6.33333C22.8333 6.83333 23.1667 7.16667 23.5 7.16667C24.5 7.16667 25.3333 8 25.3333 9.16667V11.3333C25.3333 11.6667 25 12 24.5 12C24 12 23.6667 11.6667 23.6667 11.1667V9.5C23.6667 9 23.3333 8.66667 23 8.66667C22 8.5 21.1667 7.66667 21.1667 6.5V3.66667C21.1667 3.16667 20.8333 2.83333 20.3333 2.83333C19.5 2.83333 18.6667 2.66667 18 2.5C16.5 2.16667 15.1667 2 13.6667 2C9.66667 2 7 6 7 9.5C7 11.8333 8.83333 17.1667 10.6667 20.6667C10 24.6667 11 38.5 13.3333 41.3333C13.5 41.6667 14 42 14.5 42C17.3333 42 17.6667 38.5 17.8333 34.6667C18.1667 29.6667 18.6667 26.1667 22 26.1667C25.3333 26.1667 25.8333 29.6667 26.1667 34.6667C26.5 38.3333 26.6667 42 29.5 42C30 42 30.5 41.6667 30.8333 41.3333C33.1667 38.5 34.1667 24.8333 33.5 20.6667C35.1667 17.1667 37 11.8333 37 9.5Z" fill="#252525"/>
</g>
</svg>
