<svg width="44" height="44" viewBox="0 0 44 44" fill="none" xmlns="http://www.w3.org/2000/svg">
<g opacity="0.4">
<path d="M41.7998 9.35003L34.4665 2.0167C34.0998 1.65003 33.5498 1.65003 33.1831 2.0167C32.8165 2.38337 32.8165 2.93337 33.1831 3.30003L34.2831 4.40003L28.2331 10.45L24.3831 6.60003C24.0165 6.23337 23.4665 6.23337 23.0998 6.60003C22.7331 6.9667 22.7331 7.5167 23.0998 7.88337L25.1165 9.90003L7.51647 27.5C7.51647 27.8667 7.33314 28.2334 7.33314 28.4167C7.33314 30.25 8.06647 32.0834 9.16647 33.55L2.1998 40.7C1.83314 41.0667 1.83314 41.6167 2.1998 41.9834C2.56647 42.35 3.11647 42.35 3.48314 41.9834L10.4498 34.8334C11.9165 35.9334 13.7498 36.6667 15.5831 36.6667C15.7665 36.6667 16.1331 36.4834 16.3165 36.4834L33.9165 18.8834L35.9331 20.9C36.2998 21.2667 36.8498 21.2667 37.2165 20.9C37.5831 20.5334 37.5831 19.9834 37.2165 19.6167L33.1831 15.5834L39.2331 9.53337L40.3331 10.8167C40.6998 11.1834 41.2498 11.1834 41.6165 10.8167C42.1665 10.2667 42.1665 9.7167 41.7998 9.35003ZM13.3831 30.0667C13.0165 30.4334 12.4665 30.4334 12.0998 30.0667L10.4498 28.4167C10.0831 28.05 10.0831 27.5 10.4498 27.1334C10.8165 26.7667 11.3665 26.7667 11.7331 27.1334L13.3831 28.7834C13.7498 28.9667 13.7498 29.7 13.3831 30.0667C13.5665 29.8834 13.5665 29.8834 13.3831 30.0667ZM16.3165 25.4834C15.9498 25.85 15.3998 25.85 15.0331 25.4834L14.2998 24.75C13.9331 24.3834 13.9331 23.8334 14.2998 23.4667C14.6665 23.1 15.2165 23.1 15.5831 23.4667L16.3165 24.2C16.6831 24.3834 16.6831 24.9334 16.3165 25.4834ZM20.8998 22.7334C20.5331 23.1 19.9831 23.1 19.6165 22.7334L17.9665 21.0834C17.5998 20.7167 17.5998 20.1667 17.9665 19.8C18.3331 19.4334 18.8831 19.4334 19.2498 19.8L20.8998 21.45C21.0831 21.6334 21.0831 22.3667 20.8998 22.7334C20.8998 22.55 20.8998 22.55 20.8998 22.7334ZM23.6498 18.15C23.2831 18.5167 22.7331 18.5167 22.3665 18.15L21.6331 17.4167C21.2665 17.05 21.2665 16.5 21.6331 16.1334C21.9998 15.7667 22.5498 15.7667 22.9165 16.1334L23.6498 16.8667C23.8331 17.05 23.8331 17.7834 23.6498 18.15C23.6498 17.9667 23.6498 17.9667 23.6498 18.15Z" fill="#252525"/>
</g>
</svg>
