<svg width="44" height="44" viewBox="0 0 44 44" fill="none" xmlns="http://www.w3.org/2000/svg">
<g opacity="0.4" clip-path="url(#clip0_1472_8352)">
<path d="M42.7359 10.6659C41.7857 7.88504 39.0312 6.97861 36.6816 7.45385C37.0776 6.13385 37.0071 4.83147 36.4705 3.80183C35.6783 2.25302 34.2616 1.20588 32.5807 0.941832C30.9352 0.686703 29.2631 1.2322 28.0928 2.40266C26.4471 4.04826 26.0864 6.60028 27.2128 8.62432C27.38 8.93219 27.3447 9.29302 27.1159 9.52183L20.0495 16.5794C19.7767 16.8522 19.7152 17.2659 19.8912 17.6091C20.0671 17.9434 20.4543 18.1371 20.824 18.0667L23.7807 17.565L23.5167 18.8234C23.4288 19.2459 23.6664 19.6771 24.08 19.8267L26.2712 20.6274L25.9457 23.1355C25.884 23.4259 25.9631 23.7338 26.1831 23.9538C26.4207 24.1915 26.7727 24.2531 26.8607 24.2091C27.1071 24.2003 27.3271 24.0859 27.4767 23.901L34.3671 17.0018C34.5959 16.773 34.9567 16.7291 35.2383 16.8874C37.6848 18.2691 40.7736 17.4594 42.2607 15.0483C43.0616 13.7546 43.2376 12.1179 42.7359 10.6659Z" fill="#252525"/>
<path d="M24.0621 22.6867L21.9238 21.9034L22.2933 20.1259C22.3462 19.8443 22.2669 19.5451 22.0645 19.3427C21.8621 19.1315 21.5629 19.0346 21.2814 19.0874L17.1278 19.7915C16.9255 19.8091 16.7229 19.8971 16.5733 20.0467L9.63022 26.9986C9.41022 27.2274 9.04928 27.2715 8.77643 27.113C6.32142 25.7315 3.24142 26.5498 1.74545 28.961C0.944513 30.2546 0.759749 31.8915 1.26141 33.3434C2.22928 36.1155 4.9926 37.0218 7.32451 36.5467C6.93737 37.8667 6.99881 39.1691 7.5269 40.1986C9.2545 43.5584 13.4973 44.0134 15.9133 41.5979C17.5502 39.961 17.9109 37.4003 16.7933 35.3762C16.6262 35.0683 16.6614 34.7162 16.8902 34.4874L23.8862 27.4915C24.0621 27.3506 24.1764 27.1483 24.2029 26.9195L24.634 23.6283C24.6869 23.2234 24.4493 22.8363 24.0621 22.6867Z" fill="#252525"/>
</g>
<defs>
<clipPath id="clip0_1472_8352">
<rect width="44" height="44" fill="white"/>
</clipPath>
</defs>
</svg>
